<svg width="54" height="54" viewBox="0 0 54 54" fill="none" xmlns="http://www.w3.org/2000/svg">
<path d="M24.9279 0.87186C25.218 -0.290598 28.0511 -0.290596 28.3412 0.871862C29.7367 6.46338 32.1378 13.269 36.069 17.2002C40.0002 21.1314 46.8058 23.5325 52.3973 24.9279C53.5597 25.218 53.5597 28.0511 52.3973 28.3412C46.8058 29.7367 40.0002 32.1378 36.069 36.069C32.1378 40.0002 29.7367 46.8058 28.3412 52.3973C28.0511 53.5597 25.218 53.5597 24.9279 52.3973C23.5325 46.8058 21.1314 40.0002 17.2002 36.069C13.269 32.1378 6.46338 29.7367 0.87186 28.3412C-0.290598 28.0511 -0.290596 25.218 0.871862 24.9279C6.46338 23.5325 13.269 21.1314 17.2002 17.2002C21.1314 13.269 23.5325 6.46338 24.9279 0.87186Z" fill="#ACBD6F"/>
</svg>
