<svg width="59" height="59" viewBox="0 0 59 59" fill="none" xmlns="http://www.w3.org/2000/svg">
<path d="M43.4225 3.26438C44.1456 2.48151 45.4284 3.22211 45.1119 4.2398L40.1544 20.1848C39.9493 20.8444 40.4587 21.5083 41.1489 21.4809L57.8337 20.8191C58.8986 20.7769 59.282 22.2076 58.3386 22.7035L43.5583 30.4728C42.9469 30.7942 42.8376 31.6238 43.345 32.0925L55.6109 43.4225C56.3938 44.1456 55.6532 45.4284 54.6355 45.112L38.6905 40.1544C38.0309 39.9493 37.367 40.4588 37.3944 41.1489L38.0562 57.8338C38.0984 58.8987 36.6677 59.282 36.1718 58.3387L28.4025 43.5583C28.0811 42.9469 27.2514 42.8377 26.7828 43.3451L15.4528 55.6109C14.7297 56.3938 13.4469 55.6532 13.7633 54.6355L18.7209 38.6905C18.926 38.031 18.4165 37.367 17.7263 37.3944L1.04154 38.0562C-0.0233718 38.0984 -0.406731 36.6677 0.536626 36.1718L15.317 28.4026C15.9284 28.0812 16.0376 27.2515 15.5302 26.7828L3.26434 15.4528C2.48147 14.7297 3.22207 13.4469 4.23976 13.7633L20.1848 18.7209C20.8443 18.926 21.5082 18.4166 21.4809 17.7264L20.8191 1.04158C20.7768 -0.0233337 22.2076 -0.406693 22.7035 0.536665L30.4727 15.317C30.7941 15.9284 31.6238 16.0376 32.0925 15.5303L43.4225 3.26438Z" fill="#FCE1AA"/>
</svg>
